<svg version="1.1" height="125" width="250" xmlns="http://www.w3.org/2000/svg">
    <path
        d="
            M 0, 100
            l 25, -50
            l 25, 0
            l 25, -50
            l 100, 0
            l 25, 50
            l 25, 0
            l 25, 50
            Z
        "
        fill="red"
    >
    </path>
    <path
        d="
            M 85, 10
            l -20, 40
            l 50, 0
            l 0, -40
            Z
        "
        fill="blue"
    >
    </path>
    <path
        d="
            M 135, 10
            l 0, 40
            l 50, 0
            l -20, -40
            Z
        "
        fill="blue"
    >
    </path>
    <path
        d="
            M 50, 100
            a 25, 25, 180, 0, 1, 50, 0
            Z
        "
        fill="black"
    >
    </path>
    <path
        d="
            M 50, 100
            a 25, 25, 180, 0, 0, 50, 0
            Z
        "
        fill="black"
    >
    </path>
    <path
        d="
            M 150, 100
            a 25, 25, 180, 0, 1, 50, 0
            Z
        "
        fill="black"
    >
    </path>
    <path
        d="
            M 150, 100
            a 25, 25, 180, 0, 0, 50, 0
            Z
        "
        fill="black"
    >
    </path>
</svg>